<?xml version="1.0" encoding="utf-8"?>
<!-- Generator: Adobe Illustrator 16.0.3, SVG Export Plug-In . SVG Version: 6.00 Build 0)  -->
<!DOCTYPE svg PUBLIC "-//W3C//DTD SVG 1.1//EN" "http://www.w3.org/Graphics/SVG/1.1/DTD/svg11.dtd">
<svg version="1.1" id="Слой_1" xmlns="http://www.w3.org/2000/svg" xmlns:xlink="http://www.w3.org/1999/xlink" x="0px" y="0px"
	 height="100px" viewBox="0 0 170 70" enable-background="new 0 0 170 70" xml:space="preserve">
<g>
	<g>
		<path fill="#B10A32" d="M69.333,54.634v-0.378c0.561-0.188,0.934-0.654,0.934-1.773c0-0.938-0.373-1.312-0.934-1.496v-0.377h0.096
			c1.308,0.096,1.773,0.937,1.773,1.873C71.202,53.792,70.36,54.537,69.333,54.634L69.333,54.634z M74.196,50.609h-2.245v4.023
			h2.245c0-0.097-0.093-0.188-0.093-0.281c0-0.097,0.093-0.188,0.093-0.283c-0.375,0.097-0.747,0.097-1.401,0.097v-1.497h0.654
			c0.187,0,0.465,0.093,0.654,0.093c0-0.093,0-0.187,0-0.278c0,0,0-0.094,0-0.188c-0.188,0-0.467,0-0.654,0h-0.654V51.08
			c0.654,0,1.027,0,1.401,0.092c0-0.092-0.093-0.186-0.093-0.277C74.103,50.796,74.196,50.704,74.196,50.609L74.196,50.609z
			 M75.693,54.634v-1.966h0.653c0.28,0,0.466,0.093,0.655,0.093c0-0.093,0-0.187,0-0.278c0,0,0-0.094,0-0.188
			c-0.188,0-0.375,0-0.655,0h-0.653V51.08c0.653,0,1.027,0,1.402,0.092c0-0.092-0.094-0.186-0.094-0.277
			c0-0.098,0.094-0.188,0.094-0.283h-2.244v4.023c0.186,0,0.28,0,0.466,0C75.412,54.634,75.6,54.634,75.693,54.634L75.693,54.634z
			 M77.844,50.609v4.023c0.187,0,0.28,0,0.466,0c0.094,0,0.282,0,0.374,0v-4.023c-0.092,0-0.28,0.095-0.374,0.095
			C78.124,50.704,78.03,50.609,77.844,50.609L77.844,50.609z M82.894,53.977h-0.096c-0.278,0.188-0.653,0.377-1.027,0.377
			c-0.935,0-1.401-0.655-1.401-1.686c0-0.842,0.373-1.775,1.309-1.775c0.466,0,0.747,0.188,1.029,0.561h0.09
			c0-0.281,0.096-0.467,0.096-0.656c-0.374-0.188-0.749-0.279-1.215-0.279c-1.217,0-2.246,0.75-2.246,2.244
			c0,1.215,0.937,1.965,2.152,1.965c0.374,0,0.841-0.092,1.123-0.279L82.894,53.977L82.894,53.977z M83.642,50.609v4.023
			c0.187,0,0.282,0,0.467,0c0.093,0,0.281,0,0.377,0v-4.023c-0.096,0-0.284,0.095-0.377,0.095
			C83.924,50.704,83.828,50.609,83.642,50.609L83.642,50.609z M87.104,54.634v-3.555c0.373,0,0.746,0,1.121,0.092
			c-0.094-0.092-0.094-0.187-0.094-0.278c0-0.097,0-0.188,0.094-0.283h-3.085c0,0.096,0.096,0.188,0.096,0.283
			c0,0.094-0.096,0.188-0.096,0.278c0.375-0.092,0.655-0.092,1.121-0.092v3.555c0.096,0,0.282,0,0.379,0
			C86.823,54.634,87.007,54.634,87.104,54.634z M69.333,50.609v0.375c-0.188,0-0.282,0-0.466,0h-0.47v3.271h0.47
			c0.091,0,0.278,0,0.466,0v0.378c-0.094,0-0.188,0-0.188,0h-1.681v-4.024H69.333L69.333,50.609z M44.269,54.727v-0.373
			c0.935,0,1.31-0.842,1.31-1.871c0-0.75-0.375-1.59-1.216-1.59H44.27v-0.377h0.093c1.684,0,2.15,1.217,2.15,2.06
			C46.512,53.697,45.67,54.727,44.269,54.727L44.269,54.727z M48.008,54.634v-1.966h0.655c0.188,0,0.467,0.093,0.749,0.093
			c-0.094-0.093-0.094-0.187-0.094-0.278c0,0,0-0.094,0.094-0.188c-0.282,0-0.561,0-0.749,0h-0.655V51.08
			c0.655,0,1.03,0,1.404,0.092c0-0.092-0.094-0.186-0.094-0.277c0-0.098,0.094-0.188,0.094-0.283h-2.244v4.023
			c0.186,0,0.279,0,0.466,0C47.729,54.634,47.917,54.634,48.008,54.634L48.008,54.634z M50.161,50.609v4.023c0.094,0,0.28,0,0.468,0
			c0.093,0,0.28,0,0.373,0v-4.023c-0.092,0-0.28,0.095-0.373,0.095C50.44,50.704,50.255,50.609,50.161,50.609L50.161,50.609z
			 M55.209,53.977h-0.093c-0.279,0.188-0.747,0.377-1.029,0.377c-0.935,0-1.401-0.655-1.401-1.686c0-0.842,0.373-1.775,1.401-1.775
			c0.282,0,0.655,0.188,0.936,0.561h0.093c0-0.281,0-0.467,0.093-0.656c-0.372-0.188-0.84-0.279-1.214-0.279
			c-1.218,0-2.243,0.75-2.243,2.244c0,1.215,0.935,1.965,2.15,1.965c0.372,0,0.841-0.092,1.122-0.279L55.209,53.977L55.209,53.977z
			 M55.96,50.609v4.023c0.185,0,0.279,0,0.466,0c0.091,0,0.278,0,0.375,0v-4.023c-0.096,0-0.283,0.095-0.375,0.095
			C56.24,50.704,56.146,50.609,55.96,50.609L55.96,50.609z M59.418,54.634v-3.555c0.375,0,0.75,0,1.029,0.092
			c0-0.092,0-0.187,0-0.278c0-0.097,0-0.188,0-0.283h-2.993c0.095,0.096,0.095,0.188,0.095,0.283c0,0.094,0,0.188-0.095,0.278
			c0.375-0.092,0.748-0.092,1.123-0.092v3.555c0.094,0,0.278,0,0.468,0C59.139,54.634,59.326,54.634,59.418,54.634L59.418,54.634z
			 M61.851,54.354c0.187-0.283,0-0.562-0.283-0.562c-0.279,0-0.372,0-0.372,0.185c-0.093,0.188-0.188,0.469-0.188,0.562l-0.28,1.122
			l0.186,0.098C61.196,55.285,61.568,54.727,61.851,54.354z M44.269,50.516v0.377c-0.747,0-1.214,0.652-1.214,1.868
			c0,0.751,0.373,1.593,1.214,1.593l0,0v0.373l0,0c-1.309,0-2.151-0.75-2.151-2.059C42.118,51.452,42.865,50.609,44.269,50.516
			L44.269,50.516z M40.06,53.512v-1.029c0.375-0.094,0.468-0.375,0.468-0.75c0-0.092,0-0.188,0-0.373
			c-0.093-0.279-0.188-0.373-0.468-0.373v-0.377c0.28,0,0.655,0,0.936,0.096c0.28,0.281,0.468,0.467,0.468,0.936
			s-0.376,0.936-0.937,1.028c0.281,0.56,0.657,1.124,1.028,1.588l0.281,0.378c-0.186,0-0.373,0-0.561,0s-0.375,0-0.562,0
			L40.06,53.512z M40.06,50.609v0.375c-0.093-0.092-0.281,0-0.374,0v1.496c0.093,0.094,0.28,0,0.374,0v1.03v-0.096
			c-0.093-0.188-0.281-0.374-0.374-0.655l0,0v1.873c-0.187,0-0.374,0-0.468,0c-0.188,0-0.281,0-0.468,0v-4.023h1.216H40.06
			L40.06,50.609z M36.881,52.855V52.48c0.279-0.094,0.374-0.373,0.374-0.75c0-0.373-0.188-0.746-0.374-0.746v-0.375h0.092
			c0.749,0,1.217,0.375,1.217,1.029C38.19,52.48,37.628,52.855,36.881,52.855z M36.881,50.609v0.375c-0.093,0-0.093,0-0.188,0
			h-0.281v1.59c0.093,0,0.187,0,0.375,0c0,0,0-0.094,0.093-0.094v0.375c-0.188,0-0.375,0.094-0.468,0.094v1.685
			c-0.188,0-0.375,0-0.469,0c-0.092,0-0.279,0-0.372,0v-4.024H36.881L36.881,50.609z M23.412,54.727v-0.373
			c0.842,0,1.217-0.842,1.217-1.871c0-0.75-0.281-1.59-1.217-1.59l0,0v-0.377h0.094c1.588,0,2.151,1.217,2.151,2.06
			C25.657,53.697,24.815,54.727,23.412,54.727L23.412,54.727z M26.312,50.609v4.023c0.094,0,0.187,0,0.28,0c0,0,0.096,0,0.187,0
			v-2.808l0.655,0.655c0.655,0.656,1.31,1.401,1.963,2.151h0.467v-4.024c-0.092,0-0.185,0-0.28,0c0,0-0.092,0-0.187,0v2.715
			c-0.84-0.842-1.684-1.778-2.524-2.715h-0.561V50.609z M2.838,50.893L2.838,50.893c0.841,0,1.215,0.84,1.215,1.59
			c0,1.119-0.468,1.871-1.215,1.871v0.465l0.56,0.377C3.679,55.382,3.96,55.66,4.24,55.85c0.281-0.189,0.561-0.283,0.843-0.377
			c-0.563-0.277-1.03-0.561-1.499-0.839c0.842-0.28,1.404-1.122,1.404-2.06c0-1.217-0.844-2.059-2.151-2.059l0,0L2.838,50.893
			L2.838,50.893z M23.412,50.516v0.377c-0.84,0-1.309,0.652-1.309,1.868c0,0.751,0.374,1.593,1.309,1.593l0,0v0.373h-0.093
			c-1.309,0-2.151-0.75-2.151-2.059C21.168,51.452,22.01,50.609,23.412,50.516L23.412,50.516z M5.736,50.609v2.433
			c0,0.187,0.093,0.47,0.093,0.75c0.281,0.745,1.028,0.935,1.684,0.935c0.375,0,0.842-0.093,1.123-0.281
			c0.562-0.469,0.562-1.028,0.562-1.776v-2.06c0,0-0.095,0-0.187,0c-0.095,0-0.095,0-0.187,0v1.779c0,0.279,0,0.936-0.188,1.213
			c-0.188,0.563-0.469,0.752-1.03,0.752c-0.187,0-0.466-0.098-0.654-0.283c-0.186-0.187-0.186-0.372-0.28-0.653
			C6.58,53.139,6.58,52.574,6.58,52.293v-1.684c-0.095,0-0.282,0.095-0.376,0.095C6.11,50.704,5.923,50.609,5.736,50.609
			L5.736,50.609z M10.32,50.609v4.023c0.092,0,0.278,0,0.374,0c0.187,0,0.374,0,0.467,0v-4.023c-0.093,0-0.28,0.095-0.467,0.095
			C10.599,50.704,10.412,50.609,10.32,50.609L10.32,50.609z M16.959,50.609v4.023c0.095,0,0.187,0,0.187,0c0.094,0,0.187,0,0.281,0
			v-2.808l0.655,0.655c0.655,0.656,1.216,1.401,1.964,2.151h0.467v-4.024c-0.095,0-0.188,0-0.28,0c-0.094,0-0.094,0-0.188,0v2.715
			c-0.843-0.842-1.685-1.778-2.525-2.715h-0.561V50.609z M1.527,52.761c0-1.028,0.375-1.868,1.311-1.868v-0.377
			c-1.216,0.094-2.245,0.844-2.245,2.152s0.842,2.059,2.153,2.059l0.092,0.092v-0.465H2.746C1.901,54.354,1.527,53.512,1.527,52.761
			z"/>
		<path fill="#B10A32" d="M86.259,48.645V47.9h0.845l-0.845-0.935v-1.22l1.125,1.22v-23.29l-1.125-1.213v-1.312l1.966,2.244v25.25
			H86.259z M78.31,47.243c-0.466-0.187-0.935-0.277-1.402-0.468c-0.655-0.28-1.403-0.465-2.056-0.652v0.843
			c1.122,0.093,2.244,0.371,3.458,0.466C78.404,47.432,78.404,47.243,78.31,47.243L78.31,47.243z M86.259,21.151v1.312l-1.025-1.312
			v23.287l1.025,1.309v1.22l-1.587-1.874c-0.376,0.094-0.844,0.188-1.311,0.188c-0.467,0.094-0.935,0.188-1.403,0.188
			c-2.339,0-4.489-0.561-6.453-1.401c-0.187-0.188-0.374-0.281-0.653-0.281V42.57c0.372,0.093,0.748,0.279,1.122,0.467
			c1.871,0.748,3.836,1.311,5.985,1.215c0.468,0,0.84,0,1.217,0c0.373-0.091,0.56-0.091,0.934-0.186V21.338
			c-2.244,0.375-4.299,0.187-6.172-0.374c-0.468-0.094-0.841-0.28-1.216-0.374c-0.468-0.186-0.748-0.282-1.216-0.468
			c-0.187-0.095-0.374-0.188-0.653-0.28v-1.216c0.372,0.094,0.748,0.28,1.122,0.467c0.374,0.094,0.748,0.28,1.123,0.468
			c0.373,0.094,0.748,0.188,1.123,0.281c1.963,0.562,4.112,0.748,6.267,0.28l0.652-0.188L86.259,21.151L86.259,21.151z
			 M86.259,47.898v0.746H74.852v-0.746H86.259L86.259,47.898z M74.852,45.279v-0.653c1.122,0.187,2.244,0.56,3.367,0.937
			c1.214,0.278,2.243,0.651,3.179,0.748c0.092,0.092,0.092,0.186,0,0.186c-0.842,0-1.871-0.281-3.087-0.561
			C77.188,45.746,75.973,45.467,74.852,45.279z M74.852,46.123c-0.468-0.096-1.03-0.096-1.498,0c-0.842,0-1.308,0.372-1.964,0.747
			c-0.093,0.096,0,0.188,0.095,0.188c0.466,0,0.747-0.093,1.121-0.093c0.749-0.188,1.498-0.096,2.247,0L74.852,46.123L74.852,46.123
			z M74.852,18.625v1.216c-1.03-0.375-2.057-0.562-2.806-0.562c-0.844,0-1.498,0.187-2.058,0.468
			c-0.28,0.186-0.655,0.468-0.843,0.841c0,0,0,0.094,0,0.188v22.166c0.094-0.096,0.188-0.188,0.375-0.281
			c0.562-0.283,1.402-0.561,2.431-0.561c0.844,0,1.871,0.09,2.901,0.467v1.216c-1.03-0.468-2.057-0.563-2.806-0.563
			c-0.844,0-1.498,0.188-2.058,0.471c-0.374,0.187-0.655,0.56-0.843,0.748c0,0.093,0,0.188,0,0.279v1.776
			c0,0.842,0.937,1.403,1.685,1.403h4.022v0.746H70.83c-1.401,0-2.806-0.653-2.806-2.149V23.956
			c-2.618,4.583-6.172,8.23-10.286,11.222v13.188h-0.936v-12.53c-0.656,0.371-1.31,0.84-1.963,1.214
			c-2.621,1.591-5.52,2.993-8.511,4.116v7.199h-0.842v-6.828c-3.367,1.311-6.92,2.34-10.476,3.182v3.646h-0.934v-3.459
			c-3.276,0.746-6.828,1.217-10.384,1.683v1.776h-0.934v-1.682c-2.618,0.281-5.237,0.465-7.669,0.652
			C8.73,47.803,3.307,47.803,0.593,47.898v-0.934c2.619,0,8.043-0.096,14.403-0.563c6.266-0.469,13.468-1.217,19.546-2.525
			c7.109-1.686,13.935-4.021,19.828-7.576c5.704-3.554,10.566-8.136,13.654-14.214v-1.309c0-0.188,0-0.469,0.096-0.655
			c0.277-0.467,0.653-1.029,1.4-1.309c0.562-0.374,1.402-0.657,2.431-0.657C72.794,18.157,73.821,18.253,74.852,18.625
			L74.852,18.625z M74.852,44.626c-0.656-0.188-1.31-0.188-1.871-0.188c-1.123,0-1.684,0.563-2.527,1.215
			c-0.093,0.094,0,0.188,0.094,0.188c0.842-0.374,1.591-0.654,2.618-0.654c0.47,0,1.124,0,1.686,0.094V44.626z"/>
	</g>
	<g>
		<path fill="#B10A32" d="M95.119,31.767l0.413-3.032c0.056,0,0.131,0.008,0.229,0.024c0.098,0.016,0.155,0.025,0.176,0.025
			c0.097,0,0.176-0.007,0.248-0.021c0.07-0.013,0.127-0.023,0.166-0.029c0.323,0.706,0.573,1.242,0.75,1.606
			c0.066,0.142,0.328,0.669,0.787,1.585c0.264,0.534,0.528,1.063,0.797,1.588l0.598-1.164c0.626-1.218,1.212-2.425,1.759-3.616
			h0.112c0.059,0.026,0.113,0.039,0.166,0.039c0.051,0,0.105,0,0.166,0c0.162,0,0.301-0.012,0.414-0.039
			c0.135,1.226,0.25,2.223,0.345,2.993c0.096,0.767,0.165,1.347,0.212,1.736l0.242,1.76c0.009,0.027,0.021,0.092,0.041,0.191
			c0.02,0.103,0.029,0.179,0.029,0.233c-0.113,0-0.271-0.008-0.468-0.026c-0.2-0.019-0.319-0.025-0.36-0.025
			c-0.113,0-0.27,0.007-0.465,0.025c-0.194,0.019-0.313,0.026-0.354,0.026c0-0.653-0.051-1.398-0.146-2.234
			c-0.101-0.837-0.19-1.645-0.278-2.427c-0.257,0.52-0.511,1.037-0.763,1.552c-0.254,0.516-0.506,1.03-0.754,1.543
			c-0.17,0.351-0.412,0.873-0.729,1.566c-0.106,0-0.188,0-0.242,0c-0.026,0-0.075,0-0.142,0l-0.779-1.618
			c-0.254-0.532-0.492-1.021-0.708-1.467c-0.241-0.486-0.485-0.974-0.728-1.467l-0.213,1.789l-0.103,1.144l-0.07,0.991l-0.04,0.627
			c-0.148-0.027-0.252-0.045-0.316-0.047c-0.063-0.005-0.115-0.005-0.155-0.005c-0.142,0-0.295,0.017-0.463,0.052
			c0-0.061,0.005-0.111,0.012-0.15c0.005-0.041,0.024-0.116,0.06-0.223c0.035-0.161,0.08-0.414,0.142-0.758
			c0.042-0.256,0.089-0.536,0.144-0.839c0.053-0.303,0.104-0.645,0.155-1.023C95.055,32.278,95.092,31.981,95.119,31.767z"/>
		<path fill="#B10A32" d="M111.48,32.18c0,0.52-0.104,1.015-0.309,1.485c-0.206,0.473-0.502,0.875-0.89,1.213c-0.386,0.337-0.812,0.581-1.269,0.729
			c-0.457,0.146-0.961,0.22-1.516,0.22c-0.525,0-1.031-0.081-1.514-0.24c-0.479-0.163-0.895-0.416-1.241-0.758
			c-0.347-0.346-0.599-0.732-0.753-1.164c-0.155-0.431-0.232-0.913-0.232-1.445c0-0.524,0.1-1.021,0.303-1.486
			c0.203-0.465,0.5-0.863,0.891-1.197c0.39-0.333,0.818-0.575,1.283-0.723c0.465-0.147,0.968-0.222,1.507-0.222
			c0.444,0,0.864,0.054,1.257,0.162c0.395,0.107,0.758,0.279,1.088,0.515c0.275,0.19,0.491,0.376,0.646,0.565
			c0.183,0.217,0.326,0.459,0.438,0.729c0.11,0.269,0.19,0.533,0.238,0.792C111.458,31.617,111.48,31.891,111.48,32.18z
			 M107.55,35.233c0.403,0,0.757-0.102,1.058-0.303c0.3-0.203,0.554-0.489,0.763-0.859c0.155-0.291,0.267-0.613,0.334-0.966
			c0.065-0.352,0.101-0.726,0.101-1.116c0-0.748-0.162-1.378-0.484-1.891c-0.385-0.613-0.93-0.919-1.639-0.919
			c-0.254,0-0.461,0.022-0.619,0.066c-0.16,0.042-0.334,0.135-0.521,0.277c-0.311,0.228-0.54,0.498-0.691,0.809
			c-0.152,0.31-0.259,0.652-0.32,1.024c-0.059,0.375-0.09,0.759-0.09,1.158c0,0.741,0.162,1.357,0.486,1.851
			C106.301,34.943,106.842,35.233,107.55,35.233z"/>
		<path fill="#B10A32" d="M118.294,34.433l0.132,0.05l-0.224,0.86c-0.289,0.149-0.606,0.257-0.95,0.328c-0.346,0.071-0.693,0.104-1.051,0.104
			c-0.319,0-0.592-0.017-0.82-0.047c-0.02-0.009-0.188-0.043-0.504-0.104c-0.154-0.033-0.338-0.1-0.55-0.196
			c-0.214-0.098-0.394-0.194-0.536-0.29c-0.146-0.093-0.285-0.208-0.419-0.344c-0.11-0.105-0.22-0.235-0.334-0.382
			c-0.218-0.291-0.377-0.601-0.479-0.931c-0.105-0.33-0.158-0.688-0.158-1.07c0-0.626,0.086-1.167,0.258-1.618
			c0.172-0.452,0.475-0.87,0.906-1.253c0.363-0.316,0.795-0.55,1.3-0.702c0.501-0.152,1.019-0.227,1.561-0.227
			c0.356,0,0.718,0.042,1.08,0.124c0.365,0.086,0.692,0.206,0.981,0.36c-0.034,0.135-0.073,0.299-0.117,0.491
			c-0.042,0.193-0.082,0.373-0.115,0.541h-0.143c-0.188-0.27-0.432-0.486-0.729-0.646c-0.295-0.162-0.611-0.243-0.947-0.243
			c-0.783,0-1.388,0.32-1.812,0.96c-0.37,0.56-0.558,1.25-0.558,2.072c0,0.384,0.05,0.752,0.144,1.107
			c0.095,0.353,0.246,0.667,0.454,0.939c0.21,0.274,0.477,0.486,0.8,0.638c0.322,0.151,0.662,0.228,1.021,0.228
			c0.31,0,0.631-0.071,0.959-0.208C117.775,34.837,118.057,34.656,118.294,34.433z"/>
		<path fill="#B10A32" d="M119.768,35.646l0.071-1.821v-3.047l-0.062-2.054c0.113,0,0.271,0.011,0.472,0.031c0.196,0.019,0.319,0.03,0.356,0.03
			c0.266,0,0.522-0.021,0.778-0.061l-0.079,2.264v0.939c0.524-0.608,0.965-1.131,1.324-1.57c0.443-0.541,0.865-1.085,1.262-1.632
			c0.217,0.041,0.4,0.061,0.558,0.061c0.174,0,0.364-0.021,0.565-0.061l-0.012,0.082l-1.646,1.771
			c-0.147,0.161-0.264,0.286-0.344,0.374c-0.033,0.042-0.219,0.264-0.557,0.669l2.658,3.908v0.119c-0.129,0-0.297-0.008-0.51-0.024
			c-0.211-0.017-0.338-0.024-0.381-0.024c-0.255,0-0.546,0.017-0.869,0.049l-0.979-1.536l-1.072-1.628l0.061,3.164
			c-0.114,0-0.27-0.008-0.465-0.024c-0.194-0.017-0.313-0.024-0.353-0.024c-0.116,0-0.267,0.008-0.45,0.024
			C119.911,35.639,119.802,35.646,119.768,35.646z"/>
		<path fill="#B10A32" d="M133.2,32.18c0,0.52-0.104,1.015-0.31,1.485c-0.205,0.473-0.502,0.875-0.889,1.213c-0.389,0.337-0.811,0.581-1.27,0.729
			c-0.457,0.146-0.963,0.22-1.516,0.22c-0.523,0-1.029-0.081-1.512-0.24c-0.48-0.163-0.896-0.416-1.244-0.758
			c-0.346-0.346-0.596-0.732-0.75-1.164c-0.156-0.431-0.234-0.913-0.234-1.445c0-0.524,0.104-1.021,0.303-1.486
			c0.205-0.465,0.5-0.863,0.891-1.197c0.393-0.333,0.818-0.575,1.284-0.723c0.463-0.147,0.965-0.222,1.504-0.222
			c0.446,0,0.864,0.054,1.259,0.162c0.396,0.107,0.758,0.279,1.09,0.515c0.272,0.19,0.489,0.376,0.646,0.565
			c0.182,0.217,0.328,0.459,0.438,0.729c0.111,0.269,0.189,0.533,0.238,0.792C133.177,31.617,133.2,31.891,133.2,32.18z
			 M129.268,35.233c0.405,0,0.758-0.102,1.058-0.303c0.302-0.203,0.555-0.489,0.763-0.859c0.156-0.291,0.268-0.613,0.334-0.966
			c0.068-0.352,0.104-0.726,0.104-1.116c0-0.748-0.164-1.378-0.485-1.891c-0.386-0.613-0.933-0.919-1.638-0.919
			c-0.258,0-0.465,0.022-0.622,0.066c-0.159,0.042-0.331,0.135-0.521,0.277c-0.31,0.228-0.541,0.498-0.691,0.809
			c-0.15,0.31-0.26,0.652-0.318,1.024c-0.063,0.375-0.092,0.759-0.092,1.158c0,0.741,0.162,1.357,0.484,1.851
			C128.02,34.943,128.563,35.233,129.268,35.233z"/>
		<path fill="#B10A32" d="M137.535,31.908v0.091c0.216,0,0.438,0.041,0.66,0.121c0.229,0.08,0.43,0.192,0.604,0.334
			c0.37,0.322,0.554,0.727,0.554,1.211c0,0.514-0.178,0.963-0.533,1.354c-0.156,0.163-0.342,0.29-0.566,0.385
			c-0.169,0.074-0.391,0.137-0.666,0.192c-0.076,0.014-0.173,0.024-0.298,0.034c-0.127,0.011-0.252,0.017-0.381,0.017l-1.484-0.03
			l-0.881,0.03c0.028-0.188,0.049-0.412,0.062-0.667c0.016-0.256,0.021-0.499,0.021-0.727c0-0.324,0.008-0.856,0.022-1.598
			c0.011-0.741,0.019-1.135,0.019-1.182c0-0.296-0.012-0.752-0.041-1.365c-0.026-0.613-0.039-1.074-0.039-1.384l1.144,0.031h1.453
			c0.582,0,1.041,0.111,1.387,0.33c0.416,0.268,0.625,0.674,0.625,1.216c0,0.448-0.168,0.82-0.506,1.115
			C138.393,31.676,138.007,31.842,137.535,31.908z M136.08,31.736h0.165c0.229,0,0.42-0.013,0.567-0.04
			c0.146-0.028,0.291-0.103,0.438-0.223c0.147-0.122,0.256-0.273,0.328-0.456c0.071-0.183,0.106-0.376,0.106-0.585
			c0-0.141-0.028-0.306-0.086-0.49c-0.058-0.185-0.134-0.315-0.229-0.39c-0.224-0.181-0.483-0.274-0.772-0.274
			c-0.082,0-0.147,0-0.197,0c-0.053,0-0.146,0.015-0.28,0.042c0,0.156-0.005,0.415-0.021,0.777c-0.015,0.364-0.021,0.56-0.021,0.586
			v1.053H136.08z M136.08,35.07h0.501c0.19,0,0.366-0.034,0.521-0.106c0.158-0.071,0.287-0.182,0.39-0.339
			c0.185-0.274,0.276-0.573,0.276-0.887c0-0.493-0.111-0.855-0.338-1.088c-0.228-0.232-0.562-0.348-1.007-0.348
			c-0.055,0-0.104,0-0.151,0c-0.08,0-0.142,0-0.182,0l-0.011,1.477L136.08,35.07L136.08,35.07z"/>
		<path fill="#B10A32" d="M147.107,34.433l0.134,0.05l-0.224,0.86c-0.291,0.149-0.607,0.257-0.951,0.328c-0.342,0.071-0.692,0.104-1.049,0.104
			c-0.319,0-0.592-0.017-0.82-0.047c-0.021-0.009-0.188-0.043-0.504-0.104c-0.155-0.033-0.34-0.1-0.553-0.196
			c-0.213-0.098-0.391-0.194-0.533-0.29c-0.147-0.093-0.287-0.208-0.422-0.344c-0.107-0.105-0.22-0.235-0.332-0.382
			c-0.217-0.291-0.377-0.601-0.479-0.931c-0.104-0.33-0.157-0.688-0.157-1.07c0-0.626,0.085-1.167,0.256-1.618
			c0.174-0.452,0.476-0.87,0.905-1.253c0.364-0.316,0.797-0.55,1.299-0.702c0.501-0.152,1.021-0.227,1.563-0.227
			c0.354,0,0.715,0.042,1.078,0.124c0.365,0.086,0.691,0.206,0.979,0.36c-0.032,0.135-0.069,0.299-0.114,0.491
			c-0.045,0.193-0.082,0.373-0.117,0.541h-0.141c-0.189-0.27-0.432-0.486-0.729-0.646c-0.297-0.162-0.611-0.243-0.948-0.243
			c-0.784,0-1.384,0.32-1.812,0.96c-0.369,0.56-0.557,1.25-0.557,2.072c0,0.384,0.049,0.752,0.143,1.107
			c0.095,0.353,0.246,0.667,0.455,0.939c0.209,0.274,0.476,0.486,0.799,0.638c0.324,0.151,0.662,0.228,1.021,0.228
			c0.309,0,0.628-0.071,0.958-0.208C146.588,34.837,146.873,34.656,147.107,34.433z"/>
		<path fill="#B10A32" d="M148.583,35.646l0.071-1.821v-3.047l-0.061-2.054c0.114,0,0.271,0.011,0.471,0.031c0.197,0.019,0.315,0.03,0.357,0.03
			c0.262,0,0.523-0.021,0.776-0.061l-0.078,2.264v0.939c0.526-0.608,0.966-1.131,1.323-1.57c0.443-0.541,0.865-1.085,1.263-1.632
			c0.215,0.041,0.401,0.061,0.558,0.061c0.176,0,0.363-0.021,0.565-0.061l-0.013,0.082l-1.646,1.771
			c-0.149,0.161-0.263,0.286-0.344,0.374c-0.033,0.042-0.22,0.264-0.558,0.669l2.66,3.908v0.119c-0.13,0-0.3-0.008-0.512-0.024
			c-0.213-0.017-0.338-0.024-0.38-0.024c-0.255,0-0.545,0.017-0.868,0.049l-0.98-1.536l-1.069-1.628l0.06,3.164
			c-0.113,0-0.27-0.008-0.466-0.024c-0.192-0.017-0.313-0.024-0.353-0.024c-0.114,0-0.266,0.008-0.45,0.024
			C148.727,35.639,148.617,35.646,148.583,35.646z"/>
		<path fill="#B10A32" d="M161.256,35.648c-0.07-0.015-0.191-0.026-0.359-0.037c-0.166-0.01-0.336-0.014-0.502-0.014l-0.734,0.038l-0.07,0.011
			c0-0.214,0.02-0.753,0.051-1.615c0.014-0.345,0.021-0.669,0.021-0.972V32.14l-0.03-1.355c-0.2,0.243-0.391,0.471-0.565,0.688
			c-0.224,0.276-0.441,0.559-0.656,0.849c-0.295,0.391-0.693,0.929-1.192,1.616c-0.722,0.992-1.135,1.561-1.241,1.708
			c-0.17-0.033-0.318-0.049-0.447-0.049c-0.086,0-0.178,0.01-0.271,0.028l-0.109,0.021v-2.131v-1.032c0-0.31-0.01-0.643-0.025-1
			c-0.018-0.358-0.029-0.658-0.036-0.9c0-0.148-0.008-0.307-0.021-0.476c-0.034-0.431-0.053-0.7-0.053-0.809l-0.027-0.554
			l0.828,0.04l0.828-0.05l-0.009,0.191c0,0.134-0.013,0.336-0.036,0.606c-0.023,0.27-0.035,0.476-0.035,0.617v1.122v2.223
			c0.242-0.288,0.537-0.649,0.881-1.08c0.162-0.209,0.328-0.418,0.498-0.626c0.377-0.487,0.752-0.977,1.125-1.472
			c0.371-0.495,0.752-1.022,1.145-1.581c0.168,0.033,0.32,0.05,0.455,0.05s0.286-0.017,0.456-0.05l-0.031,0.475v1.627
			c0,0.965,0.011,1.808,0.033,2.533C161.143,34.093,161.188,34.854,161.256,35.648z"/>
		<path fill="#B10A32" d="M169.17,35.648c-0.072-0.015-0.193-0.026-0.359-0.037c-0.17-0.01-0.336-0.014-0.502-0.014l-0.733,0.038l-0.071,0.011
			c0-0.214,0.018-0.753,0.051-1.615c0.016-0.345,0.021-0.669,0.021-0.972V32.14l-0.03-1.355c-0.202,0.243-0.393,0.471-0.566,0.688
			c-0.222,0.276-0.44,0.559-0.655,0.849c-0.296,0.391-0.694,0.929-1.191,1.616c-0.724,0.992-1.137,1.561-1.245,1.708
			c-0.166-0.033-0.316-0.049-0.443-0.049c-0.088,0-0.178,0.01-0.273,0.028l-0.111,0.021v-2.131v-1.032c0-0.311-0.008-0.643-0.024-1
			c-0.017-0.358-0.027-0.658-0.035-0.9c0-0.148-0.005-0.307-0.021-0.476c-0.033-0.431-0.051-0.7-0.051-0.809l-0.029-0.554
			l0.828,0.04l0.83-0.05l-0.01,0.191c0,0.134-0.013,0.336-0.037,0.606c-0.023,0.27-0.035,0.476-0.035,0.617v1.122v2.223
			c0.242-0.288,0.537-0.649,0.881-1.08c0.164-0.209,0.328-0.418,0.498-0.626c0.379-0.487,0.752-0.977,1.123-1.472
			c0.373-0.495,0.754-1.022,1.146-1.581c0.17,0.033,0.319,0.05,0.455,0.05c0.137,0,0.287-0.017,0.455-0.05L169,29.209v1.627
			c0,0.965,0.012,1.808,0.032,2.533C169.055,34.093,169.102,34.854,169.17,35.648z M167.654,27.249
			c-0.135,0.316-0.34,0.572-0.616,0.768c-0.276,0.196-0.608,0.293-0.999,0.293c-0.387,0-0.716-0.098-0.991-0.293
			c-0.276-0.195-0.485-0.452-0.627-0.768l0.321-0.172c0.283,0.424,0.72,0.636,1.305,0.636c0.283,0,0.533-0.053,0.754-0.157
			c0.219-0.104,0.396-0.265,0.531-0.479L167.654,27.249z"/>
		<path fill="#B10A32" d="M94.188,38.156c0.136,0,0.317,0.011,0.547,0.029c0.229,0.021,0.361,0.03,0.395,0.03c0.305,0,0.604-0.021,0.9-0.062
			l0.465,0.88l0.494,0.95c0.048,0.096,0.107,0.203,0.183,0.324c0.177,0.295,0.28,0.482,0.317,0.561s0.117,0.223,0.242,0.434
			c0.127,0.213,0.209,0.342,0.248,0.381l0.162-0.203l0.172-0.313c0.047-0.092,0.174-0.373,0.383-0.838
			c0.164-0.363,0.289-0.644,0.385-0.839l0.373-0.827l0.225-0.507l0.121,0.025c0.112,0.022,0.227,0.034,0.333,0.034
			c0.149,0,0.313-0.021,0.496-0.061c-0.129,0.241-0.354,0.657-0.679,1.245c-0.208,0.385-0.428,0.793-0.656,1.227
			c-0.281,0.539-0.516,0.998-0.697,1.376c-0.066,0.136-0.166,0.34-0.293,0.618c-0.148,0.311-0.232,0.493-0.254,0.545
			c-0.115,0.266-0.242,0.581-0.383,0.948c-0.143,0.366-0.253,0.69-0.335,0.968c-0.166,0-0.296-0.006-0.39-0.012
			c-0.09-0.01-0.18-0.016-0.268-0.022c-0.074,0-0.209,0.011-0.404,0.034c0.176-0.291,0.342-0.587,0.5-0.889
			c0.158-0.299,0.303-0.592,0.431-0.875c-0.026-0.088-0.099-0.239-0.218-0.457c-0.117-0.215-0.237-0.435-0.356-0.656
			c-0.263-0.473-0.547-0.964-0.853-1.475c-0.303-0.508-0.558-0.931-0.767-1.27C94.73,39.031,94.459,38.596,94.188,38.156z"/>
		<path fill="#B10A32" d="M102.052,38.164c0.114,0,0.271,0.008,0.464,0.025c0.196,0.019,0.315,0.026,0.354,0.026c0.124,0,0.28-0.009,0.476-0.026
			c0.196-0.019,0.314-0.025,0.354-0.025c0,0.184-0.011,0.438-0.035,0.77c-0.021,0.33-0.035,0.543-0.035,0.637v0.436v0.932
			c0.175,0,0.472,0.006,0.884,0.02c0.416,0.016,0.639,0.02,0.674,0.02c0.182,0,0.476-0.004,0.885-0.02
			c0.406-0.014,0.625-0.02,0.65-0.02l-0.01-1.427c0-0.202-0.004-0.368-0.013-0.495c-0.033-0.513-0.048-0.798-0.048-0.851
			c0.115,0,0.271,0.008,0.474,0.026c0.199,0.018,0.319,0.025,0.358,0.025c0.104,0,0.257-0.009,0.459-0.025
			c0.203-0.02,0.332-0.026,0.387-0.026c0,0.188-0.008,0.358-0.021,0.517c-0.045,0.532-0.07,0.819-0.07,0.858l-0.029,2.354
			c0,0.44,0.006,0.838,0.021,1.195c0.047,1.24,0.068,1.905,0.068,1.993c-0.115,0-0.267-0.011-0.46-0.028
			c-0.19-0.017-0.307-0.024-0.349-0.024c-0.127,0-0.301,0.009-0.52,0.024c-0.221,0.019-0.347,0.028-0.38,0.028l0.062-1.397
			l0.061-1.457v-0.484l-1.542-0.03l-1.541,0.03v1.227c0,0.275,0.015,0.661,0.035,1.155c0.024,0.496,0.035,0.815,0.035,0.958
			c-0.107,0-0.257-0.011-0.449-0.027c-0.19-0.018-0.308-0.025-0.349-0.025c-0.127,0-0.299,0.009-0.51,0.025
			c-0.215,0.018-0.34,0.027-0.381,0.027c0-0.379,0.014-0.84,0.041-1.387c0.061-1.233,0.09-2.01,0.09-2.327
			c0-0.443-0.004-0.847-0.018-1.202C102.074,38.913,102.052,38.243,102.052,38.164z"/>
		<path fill="#B10A32" d="M116.613,45.083c-0.073-0.017-0.192-0.028-0.361-0.038c-0.168-0.012-0.333-0.016-0.503-0.016l-0.729,0.037l-0.071,0.011
			c0-0.214,0.017-0.753,0.052-1.614c0.014-0.346,0.021-0.668,0.021-0.971v-0.919l-0.031-1.355c-0.204,0.242-0.393,0.47-0.567,0.688
			c-0.221,0.273-0.44,0.56-0.655,0.85c-0.295,0.391-0.694,0.93-1.192,1.617c-0.722,0.988-1.136,1.561-1.243,1.705
			c-0.168-0.032-0.316-0.048-0.445-0.048c-0.088,0-0.178,0.01-0.271,0.03l-0.109,0.018v-2.13v-1.031c0-0.31-0.011-0.646-0.027-1.001
			c-0.016-0.355-0.028-0.655-0.035-0.898c0-0.148-0.004-0.31-0.018-0.477c-0.035-0.43-0.051-0.7-0.051-0.809l-0.032-0.556
			l0.829,0.04l0.829-0.05l-0.012,0.192c0,0.134-0.011,0.336-0.033,0.604c-0.026,0.271-0.036,0.476-0.036,0.616v1.12v2.226
			c0.241-0.29,0.536-0.65,0.883-1.082c0.158-0.207,0.326-0.416,0.496-0.627c0.379-0.484,0.752-0.975,1.124-1.471
			c0.371-0.496,0.753-1.021,1.144-1.58c0.17,0.033,0.32,0.05,0.455,0.05c0.137,0,0.289-0.017,0.455-0.05l-0.026,0.475v1.627
			c0,0.965,0.01,1.811,0.032,2.533C116.499,43.525,116.545,44.286,116.613,45.083z"/>
		<path fill="#B10A32" d="M121.719,41.342v0.09c0.217,0,0.436,0.041,0.663,0.121c0.226,0.08,0.425,0.19,0.599,0.333
			c0.373,0.322,0.559,0.729,0.559,1.214c0,0.512-0.18,0.963-0.535,1.354c-0.154,0.162-0.345,0.29-0.566,0.383
			c-0.168,0.075-0.392,0.14-0.668,0.193c-0.074,0.013-0.172,0.024-0.297,0.034c-0.125,0.012-0.25,0.014-0.379,0.014l-1.486-0.028
			l-0.879,0.028c0.026-0.186,0.047-0.409,0.061-0.664c0.016-0.258,0.021-0.499,0.021-0.729c0-0.324,0.006-0.854,0.021-1.597
			c0.015-0.741,0.021-1.135,0.021-1.183c0-0.297-0.013-0.751-0.041-1.365c-0.026-0.613-0.039-1.074-0.039-1.384l1.14,0.03h1.456
			c0.581,0,1.043,0.109,1.385,0.33c0.419,0.271,0.628,0.676,0.628,1.215c0,0.449-0.169,0.822-0.506,1.117
			C122.574,41.109,122.189,41.273,121.719,41.342z M120.266,41.167h0.162c0.231,0,0.422-0.013,0.567-0.039s0.294-0.103,0.44-0.223
			c0.145-0.121,0.254-0.273,0.328-0.454c0.07-0.186,0.106-0.379,0.106-0.588c0-0.141-0.031-0.305-0.087-0.49
			c-0.059-0.186-0.135-0.314-0.229-0.389c-0.225-0.183-0.481-0.272-0.773-0.272c-0.081,0-0.146,0-0.197,0
			c-0.053,0-0.145,0.015-0.281,0.04c0,0.154-0.007,0.415-0.017,0.778c-0.015,0.364-0.021,0.561-0.021,0.586V41.167L120.266,41.167z
			 M120.266,44.503h0.5c0.191,0,0.363-0.034,0.521-0.106c0.156-0.069,0.286-0.185,0.389-0.338c0.184-0.274,0.275-0.572,0.275-0.891
			c0-0.491-0.113-0.854-0.338-1.085c-0.229-0.233-0.563-0.351-1.008-0.351c-0.053,0-0.104,0-0.149,0c-0.081,0-0.142,0-0.183,0
			l-0.01,1.479v1.292H120.266z"/>
		<path fill="#B10A32" d="M125.348,38.297v-0.13c0.174,0,0.438,0.01,0.797,0.03c0.355,0.02,0.623,0.029,0.806,0.029
			c0.321,0,0.758-0.011,1.301-0.029c0.544-0.021,0.87-0.03,0.978-0.03c-0.025,0.127-0.039,0.272-0.039,0.433
			c0,0.041,0.002,0.088,0.004,0.139c0.005,0.051,0.01,0.109,0.018,0.177l0.02,0.121c-0.256,0-0.641-0.019-1.151-0.056
			c-0.513-0.037-0.896-0.057-1.152-0.057l-0.04,1.053v1.121l2.305-0.082c-0.016,0.108-0.023,0.202-0.035,0.28
			c-0.01,0.075-0.018,0.142-0.018,0.194c0,0.089,0.008,0.16,0.018,0.214c0.012,0.054,0.021,0.11,0.035,0.171
			c-0.195,0-0.492-0.016-0.89-0.046c-0.397-0.029-0.702-0.045-0.909-0.045h-0.498l-0.008,1.284v1.271
			c0.715,0,1.497-0.044,2.344-0.131c-0.025,0.128-0.039,0.273-0.039,0.436c0,0.039,0.002,0.086,0.004,0.138
			c0.005,0.049,0.01,0.108,0.018,0.176l0.02,0.119c-0.203,0-0.506-0.011-0.912-0.028c-0.401-0.02-0.709-0.029-0.918-0.029
			l-1.191,0.029l-0.9,0.028l0.041-0.574l0.051-1.889v-1.537v-1.183c0-0.256-0.004-0.451-0.008-0.586
			C125.361,38.641,125.348,38.305,125.348,38.297z"/>
		<path fill="#B10A32" d="M130.986,38.167l0.938,0.03c0.147,0,0.392-0.008,0.733-0.021c0.34-0.015,0.521-0.021,0.541-0.021
			c0.181,0,0.361,0.001,0.545,0.005c0.184,0.005,0.363,0.025,0.545,0.066c0.419,0.094,0.751,0.291,1.001,0.59
			c0.249,0.302,0.375,0.662,0.375,1.086c0,0.313-0.04,0.587-0.116,0.824c-0.076,0.239-0.219,0.461-0.42,0.668
			c-0.202,0.205-0.418,0.355-0.646,0.448c-0.162,0.067-0.418,0.132-0.769,0.192c-0.112,0.02-0.262,0.033-0.438,0.041
			c-0.18,0.007-0.277,0.01-0.297,0.01h-0.446c0,0.234,0.004,0.471,0.011,0.707c0.006,0.236,0.014,0.471,0.02,0.697
			c0,0.183,0.012,0.451,0.03,0.802c0.021,0.351,0.029,0.612,0.029,0.789c-0.099,0-0.251-0.011-0.453-0.028
			c-0.202-0.017-0.33-0.025-0.384-0.025c-0.122,0-0.28,0.01-0.477,0.025c-0.195,0.018-0.313,0.028-0.354,0.028l0.07-0.537
			c0-0.162,0.007-0.375,0.015-0.638c0.01-0.262,0.017-0.417,0.017-0.465v-1.535c0-0.311-0.007-0.828-0.017-1.547
			c-0.008-0.724-0.015-1.11-0.015-1.164v-0.254C131.027,38.689,131.014,38.43,130.986,38.167z M132.573,38.73l-0.011,1.221v0.85
			l-0.03,0.73c0.147,0,0.262-0.006,0.343-0.01c0.082-0.006,0.189-0.026,0.325-0.063c0.31-0.088,0.534-0.264,0.676-0.523
			c0.123-0.223,0.183-0.506,0.183-0.85c0-0.25-0.033-0.477-0.101-0.679c-0.067-0.201-0.185-0.371-0.354-0.505
			c-0.088-0.065-0.183-0.111-0.283-0.137c-0.1-0.023-0.229-0.035-0.385-0.035c-0.064,0-0.131,0-0.191,0S132.625,38.73,132.573,38.73
			z"/>
		<path fill="#B10A32" d="M142.79,43.865l0.131,0.053l-0.222,0.859c-0.291,0.146-0.605,0.256-0.949,0.326c-0.344,0.071-0.693,0.105-1.053,0.105
			c-0.315,0-0.59-0.018-0.817-0.051c-0.021-0.006-0.188-0.039-0.506-0.1c-0.153-0.035-0.338-0.101-0.551-0.197
			c-0.212-0.098-0.39-0.194-0.535-0.289c-0.146-0.094-0.286-0.211-0.42-0.344c-0.106-0.107-0.218-0.236-0.333-0.385
			c-0.217-0.289-0.376-0.598-0.479-0.93c-0.104-0.33-0.158-0.688-0.158-1.071c0-0.627,0.086-1.166,0.259-1.616
			c0.173-0.451,0.473-0.869,0.905-1.252c0.361-0.316,0.793-0.553,1.297-0.703c0.502-0.152,1.022-0.229,1.563-0.229
			c0.354,0,0.718,0.044,1.08,0.127c0.364,0.085,0.688,0.205,0.979,0.358c-0.034,0.136-0.069,0.3-0.114,0.492
			c-0.046,0.19-0.082,0.371-0.117,0.539h-0.142c-0.188-0.271-0.433-0.486-0.729-0.646c-0.297-0.162-0.611-0.241-0.949-0.241
			c-0.781,0-1.386,0.319-1.81,0.959c-0.371,0.56-0.558,1.249-0.558,2.072c0,0.384,0.049,0.752,0.143,1.106
			c0.095,0.353,0.248,0.668,0.455,0.938c0.209,0.272,0.475,0.485,0.799,0.638c0.323,0.148,0.663,0.229,1.02,0.229
			c0.312,0,0.633-0.07,0.961-0.209C142.271,44.271,142.555,44.089,142.79,43.865z"/>
		<path fill="#B10A32" d="M150.907,45.083c-0.073-0.017-0.196-0.028-0.363-0.038c-0.169-0.012-0.335-0.016-0.502-0.016l-0.731,0.037l-0.072,0.011
			c0-0.214,0.018-0.753,0.052-1.614c0.015-0.346,0.021-0.668,0.021-0.971v-0.919l-0.031-1.355c-0.2,0.242-0.391,0.47-0.563,0.688
			c-0.224,0.273-0.442,0.56-0.659,0.85c-0.295,0.391-0.693,0.93-1.191,1.617c-0.723,0.988-1.135,1.561-1.242,1.705
			c-0.169-0.032-0.318-0.048-0.445-0.048c-0.089,0-0.179,0.01-0.271,0.03l-0.112,0.018v-2.13v-1.031c0-0.31-0.01-0.646-0.024-1.001
			c-0.016-0.355-0.027-0.655-0.033-0.898c0-0.148-0.008-0.31-0.021-0.477c-0.035-0.43-0.052-0.7-0.052-0.809l-0.03-0.556l0.829,0.04
			l0.829-0.05l-0.012,0.192c0,0.134-0.01,0.336-0.035,0.604c-0.023,0.271-0.034,0.476-0.034,0.616v1.12v2.226
			c0.242-0.29,0.537-0.65,0.882-1.082c0.161-0.207,0.327-0.416,0.497-0.627c0.377-0.484,0.753-0.975,1.123-1.471
			c0.373-0.496,0.754-1.021,1.146-1.58c0.17,0.033,0.321,0.05,0.453,0.05c0.137,0,0.289-0.017,0.455-0.05l-0.029,0.475v1.627
			c0,0.965,0.012,1.811,0.033,2.533C150.789,43.525,150.836,44.286,150.907,45.083z"/>
		<path fill="#B10A32" d="M155.839,38.914l-0.021,0.738l-0.03,2.517l0.03,1.296c0,0.248,0.005,0.565,0.015,0.95
			c0.013,0.385,0.017,0.606,0.017,0.668c-0.113,0-0.271-0.011-0.471-0.028c-0.199-0.017-0.316-0.024-0.357-0.024
			c-0.123,0-0.279,0.009-0.476,0.024c-0.194,0.019-0.313,0.028-0.354,0.028c0-0.19,0.015-0.453,0.045-0.789
			c0.029-0.337,0.048-0.553,0.048-0.647c0-0.531,0.004-1.205,0.016-2.022c0.009-0.815,0.015-1.283,0.015-1.405l-0.029-1.304
			c-0.104,0-0.271,0.007-0.503,0.021s-0.358,0.021-0.378,0.021l-0.98,0.1c0.033-0.119,0.051-0.266,0.051-0.436
			c0-0.055,0-0.105,0-0.16c-0.014-0.082-0.019-0.139-0.019-0.173l-0.032-0.12l0.758,0.02c0.211,0,0.562,0.008,1.051,0.021
			c0.494,0.015,0.756,0.021,0.789,0.021h1.041c0.242,0,0.438-0.004,0.586-0.015c0.603-0.028,0.929-0.046,0.979-0.046
			c-0.021,0.112-0.03,0.189-0.034,0.229c-0.005,0.037-0.006,0.095-0.006,0.176c0,0.182,0.016,0.344,0.04,0.484
			C157.007,38.961,156.411,38.914,155.839,38.914z"/>
		<path fill="#B10A32" d="M159.273,38.297v-0.13c0.174,0,0.44,0.01,0.797,0.03c0.355,0.02,0.625,0.029,0.807,0.029c0.323,0,0.755-0.011,1.3-0.029
			c0.546-0.021,0.871-0.03,0.979-0.03c-0.028,0.127-0.043,0.272-0.043,0.433c0,0.041,0.004,0.088,0.007,0.139
			s0.008,0.109,0.017,0.177l0.021,0.121c-0.257,0-0.64-0.019-1.153-0.056c-0.511-0.037-0.896-0.057-1.152-0.057l-0.039,1.053v1.121
			l2.304-0.082c-0.015,0.108-0.023,0.202-0.034,0.28c-0.01,0.075-0.016,0.142-0.016,0.194c0,0.089,0.006,0.16,0.016,0.214
			c0.011,0.054,0.021,0.11,0.034,0.171c-0.194,0-0.492-0.016-0.888-0.046c-0.398-0.029-0.703-0.045-0.91-0.045h-0.494l-0.012,1.284
			v1.271c0.717,0,1.498-0.044,2.346-0.131c-0.028,0.128-0.042,0.273-0.042,0.436c0,0.039,0.003,0.086,0.006,0.138
			c0.003,0.049,0.008,0.108,0.017,0.176l0.021,0.119c-0.202,0-0.507-0.011-0.908-0.028c-0.405-0.02-0.712-0.029-0.921-0.029
			l-1.191,0.029l-0.898,0.028l0.039-0.574l0.052-1.889v-1.537v-1.183c0-0.256-0.005-0.451-0.011-0.586
			C159.288,38.641,159.273,38.305,159.273,38.297z"/>
		<path fill="#B10A32" d="M167.803,38.914l-0.02,0.738l-0.029,2.517l0.029,1.296c0,0.248,0.007,0.565,0.016,0.95
			c0.012,0.385,0.016,0.606,0.016,0.668c-0.114,0-0.271-0.011-0.469-0.028c-0.201-0.017-0.318-0.024-0.359-0.024
			c-0.121,0-0.279,0.009-0.475,0.024c-0.195,0.019-0.313,0.028-0.354,0.028c0-0.19,0.017-0.453,0.046-0.789
			c0.031-0.337,0.046-0.553,0.046-0.647c0-0.531,0.005-1.205,0.015-2.022c0.012-0.815,0.016-1.283,0.016-1.405l-0.029-1.304
			c-0.102,0-0.27,0.007-0.501,0.021c-0.229,0.014-0.358,0.021-0.379,0.021l-0.979,0.1c0.031-0.119,0.049-0.266,0.049-0.436
			c0-0.055,0-0.105,0-0.16c-0.014-0.082-0.021-0.139-0.021-0.173l-0.028-0.12l0.756,0.02c0.209,0,0.561,0.008,1.054,0.021
			c0.491,0.015,0.753,0.021,0.786,0.021h1.041c0.244,0,0.438-0.004,0.586-0.015c0.599-0.028,0.928-0.046,0.98-0.046
			c-0.021,0.112-0.031,0.189-0.035,0.229c-0.004,0.037-0.006,0.095-0.006,0.176c0,0.182,0.014,0.344,0.041,0.484
			C168.973,38.961,168.376,38.914,167.803,38.914z"/>
		<path fill="#B10A32" d="M94.629,54.527l0.03-0.625l0.036-0.907l0.029-1.438c0-0.171-0.012-0.431-0.029-0.775
			c-0.019-0.348-0.029-0.609-0.029-0.788l0.085,0.011l0.683,0.029c0.068,0,0.178-0.008,0.328-0.02
			c0.15-0.014,0.266-0.021,0.34-0.021l-0.074,1.218c0,0.207-0.008,0.515-0.02,0.918c-0.013,0.407-0.02,0.615-0.02,0.627
			c0.396-0.435,0.769-0.866,1.115-1.301c0.347-0.433,0.715-0.921,1.104-1.462c0.084,0,0.164,0.004,0.247,0.007
			c0.082,0.001,0.165,0.004,0.248,0.004h0.152c0.043-0.007,0.076-0.011,0.103-0.011l-0.067,1.218c0,0.208-0.004,0.558-0.018,1.048
			c-0.012,0.489-0.018,0.756-0.018,0.792c0,0.328,0.002,0.591,0.009,0.787c0.005,0.196,0.026,0.427,0.065,0.69
			c-0.107,0-0.254-0.008-0.438-0.03c-0.187-0.021-0.298-0.031-0.333-0.031c-0.096,0-0.223,0.011-0.385,0.031
			c-0.162,0.022-0.256,0.03-0.285,0.03l0.025-0.627l0.039-0.909V51.71c-0.408,0.435-0.797,0.884-1.162,1.354
			c-0.367,0.469-0.725,0.955-1.067,1.465c-0.082,0-0.199,0-0.353,0C94.816,54.529,94.704,54.527,94.629,54.527z"/>
		<path fill="#B10A32" d="M104.912,54.514c-0.096,0-0.174-0.003-0.239-0.009c-0.263-0.026-0.401-0.039-0.419-0.039c-0.141,0-0.27,0.007-0.384,0.019
			c-0.112,0.015-0.201,0.022-0.267,0.029c0-0.459-0.039-1.033-0.113-1.729c-0.041-0.34-0.08-0.684-0.113-1.029
			c-0.24,0.428-0.471,0.868-0.689,1.323c-0.22,0.456-0.435,0.935-0.645,1.437c-0.04,0-0.102,0-0.176,0c-0.04,0-0.073,0-0.096,0
			c-0.229-0.526-0.432-0.972-0.606-1.334c-0.192-0.396-0.435-0.858-0.72-1.386c-0.082,0.521-0.139,0.996-0.176,1.421
			c-0.035,0.424-0.052,0.854-0.052,1.286l-0.353-0.026l-0.324,0.039c0.229-1.306,0.463-2.813,0.702-4.522
			c0.042,0.014,0.082,0.024,0.123,0.03c0.04,0.007,0.094,0.011,0.157,0.011c0.094,0,0.192-0.015,0.3-0.041
			c0.479,0.983,0.958,1.963,1.438,2.938c0.256-0.479,0.496-0.938,0.719-1.379c0.252-0.505,0.5-1.021,0.746-1.56
			c0.088,0.026,0.181,0.041,0.28,0.041c0.052,0,0.109-0.007,0.171-0.017c0.061-0.01,0.106-0.018,0.137-0.024
			C104.49,51.621,104.688,53.129,104.912,54.514z"/>
		<path fill="#B10A32" d="M109.493,52.268h-2.716l0.037,0.539c0,0.139,0.047,0.301,0.143,0.493c0.093,0.191,0.197,0.339,0.314,0.438
			c0.117,0.101,0.24,0.175,0.375,0.22c0.139,0.043,0.289,0.063,0.459,0.063c0.194,0,0.389-0.037,0.576-0.112
			c0.188-0.074,0.363-0.181,0.526-0.312l0.114,0.084l-0.209,0.529c-0.4,0.282-0.852,0.423-1.348,0.423
			c-0.402,0-0.746-0.05-1.027-0.149c-0.282-0.103-0.547-0.289-0.793-0.566c-0.201-0.22-0.344-0.479-0.424-0.777
			c-0.082-0.299-0.123-0.627-0.123-0.985c0-0.673,0.192-1.222,0.58-1.646c0.388-0.424,0.912-0.637,1.578-0.637
			c0.693,0,1.199,0.229,1.521,0.688C109.354,50.956,109.493,51.523,109.493,52.268z M106.777,51.813h1.461
			c-0.006-0.019-0.01-0.037-0.01-0.061c0-0.021,0-0.036,0-0.043c0-0.051,0-0.088,0-0.111c0-0.303-0.037-0.57-0.113-0.803
			c-0.114-0.345-0.295-0.52-0.541-0.52c-0.305,0-0.522,0.19-0.654,0.574C106.824,51.121,106.777,51.443,106.777,51.813z"/>
		<path fill="#B10A32" d="M111.635,51.871l0.75,0.029l0.778-0.029v-0.32c0-0.169-0.007-0.43-0.021-0.773c-0.014-0.346-0.019-0.605-0.019-0.784
			l0.085,0.011l0.684,0.029c0.07,0,0.181-0.008,0.332-0.02c0.153-0.014,0.268-0.021,0.342-0.021l-0.064,1.218
			c0,0.208-0.007,0.558-0.018,1.043c-0.016,0.488-0.021,0.752-0.021,0.789c0,0.328,0.003,0.589,0.01,0.785
			c0.008,0.194,0.029,0.422,0.067,0.687c-0.108,0-0.255-0.008-0.44-0.022c-0.185-0.019-0.295-0.024-0.334-0.024
			c-0.093,0-0.221,0.008-0.381,0.024c-0.16,0.016-0.258,0.022-0.289,0.022l0.029-0.621l0.038-0.908v-0.536l-0.761-0.03l-0.769,0.03
			v0.594c0,0.327,0.003,0.59,0.009,0.786c0.006,0.191,0.028,0.421,0.065,0.688c-0.104,0-0.251-0.009-0.438-0.023
			c-0.185-0.018-0.297-0.024-0.334-0.024c-0.096,0-0.223,0.007-0.381,0.024c-0.16,0.016-0.259,0.023-0.289,0.023l0.027-0.623
			l0.039-0.904l0.027-1.437c0-0.169-0.012-0.428-0.033-0.774c-0.021-0.346-0.033-0.604-0.033-0.783l0.087,0.011l0.685,0.029
			c0.067,0,0.18-0.007,0.332-0.021c0.151-0.013,0.266-0.021,0.342-0.021l-0.076,1.218L111.635,51.871z"/>
		<path fill="#B10A32" d="M115.52,54.527l0.028-0.625l0.037-0.907l0.03-1.438c0-0.171-0.012-0.431-0.03-0.775c-0.019-0.348-0.026-0.609-0.026-0.788
			l0.084,0.011l0.681,0.029c0.069,0,0.18-0.008,0.331-0.02c0.15-0.014,0.264-0.021,0.338-0.021l-0.074,1.218
			c0,0.207-0.006,0.515-0.02,0.918c-0.012,0.407-0.021,0.615-0.021,0.627c0.398-0.435,0.771-0.866,1.119-1.301
			c0.345-0.433,0.714-0.921,1.104-1.462c0.082,0,0.166,0.004,0.246,0.007c0.084,0.001,0.166,0.004,0.248,0.004h0.153
			c0.043-0.007,0.078-0.011,0.103-0.011l-0.065,1.218c0,0.208-0.005,0.558-0.019,1.048c-0.014,0.489-0.019,0.756-0.019,0.792
			c0,0.328,0.002,0.591,0.009,0.787c0.006,0.196,0.027,0.427,0.066,0.69c-0.108,0-0.254-0.008-0.439-0.03
			c-0.188-0.021-0.297-0.031-0.335-0.031c-0.095,0-0.22,0.011-0.381,0.031c-0.16,0.022-0.257,0.03-0.29,0.03l0.029-0.627
			l0.039-0.909V51.71c-0.408,0.435-0.795,0.884-1.162,1.354c-0.367,0.469-0.725,0.955-1.071,1.465c-0.078,0-0.196,0-0.351,0
			C115.708,54.529,115.596,54.527,115.52,54.527z"/>
		<path fill="#B10A32" d="M128.314,53.3l0.117,0.052l-0.197,0.856c-0.262,0.149-0.549,0.259-0.855,0.329c-0.311,0.07-0.625,0.105-0.947,0.105
			c-0.285,0-0.529-0.019-0.736-0.051c-0.018-0.006-0.168-0.04-0.452-0.102c-0.14-0.033-0.306-0.1-0.496-0.196
			c-0.192-0.099-0.353-0.194-0.483-0.289c-0.132-0.093-0.257-0.209-0.377-0.343c-0.097-0.105-0.197-0.235-0.299-0.387
			c-0.195-0.286-0.341-0.596-0.434-0.928c-0.094-0.33-0.143-0.688-0.143-1.072c0-0.625,0.077-1.166,0.232-1.616
			c0.154-0.45,0.426-0.868,0.814-1.252c0.326-0.315,0.717-0.552,1.17-0.703c0.448-0.151,0.918-0.228,1.403-0.228
			c0.32,0,0.644,0.041,0.974,0.127c0.326,0.084,0.621,0.203,0.881,0.356c-0.028,0.138-0.063,0.299-0.104,0.491
			c-0.038,0.191-0.075,0.372-0.104,0.54h-0.127c-0.172-0.269-0.389-0.484-0.655-0.647c-0.267-0.16-0.552-0.24-0.854-0.24
			c-0.701,0-1.246,0.319-1.627,0.961c-0.336,0.558-0.5,1.248-0.5,2.07c0,0.383,0.041,0.754,0.125,1.105
			c0.086,0.354,0.223,0.666,0.41,0.939c0.188,0.272,0.428,0.485,0.719,0.637c0.293,0.152,0.598,0.229,0.92,0.229
			c0.276,0,0.564-0.069,0.862-0.209C127.85,53.703,128.104,53.521,128.314,53.3z"/>
		<path fill="#B10A32" d="M129.189,54.587c-0.15,0-0.28-0.055-0.392-0.164c-0.106-0.106-0.161-0.235-0.161-0.389c0-0.147,0.057-0.279,0.168-0.39
			c0.107-0.108,0.238-0.164,0.385-0.164c0.149,0,0.279,0.055,0.392,0.162c0.112,0.106,0.169,0.237,0.169,0.392
			c0,0.153-0.055,0.282-0.164,0.389C129.48,54.532,129.348,54.587,129.189,54.587z"/>
		<path fill="#B10A32" d="M132.124,51.176c-0.082,0-0.171,0-0.261,0s-0.184,0-0.28,0h-0.089V52.4c0,0.274,0.011,0.66,0.031,1.156
			c0.021,0.495,0.029,0.813,0.029,0.955c-0.093,0-0.225-0.008-0.394-0.025c-0.168-0.018-0.271-0.025-0.304-0.025
			c-0.112,0-0.262,0.009-0.447,0.025c-0.184,0.019-0.297,0.025-0.332,0.025c0-0.377,0.014-0.84,0.035-1.386
			c0.055-1.233,0.08-2.007,0.08-2.324c0-0.444-0.006-0.846-0.017-1.202c-0.042-1.255-0.063-1.92-0.063-2
			c0.103,0,0.236,0.008,0.406,0.022c0.172,0.021,0.273,0.024,0.312,0.024c0.106,0,0.243-0.006,0.415-0.024
			c0.171-0.015,0.273-0.022,0.309-0.022c0,0.182-0.01,0.437-0.029,0.768c-0.021,0.331-0.031,0.543-0.031,0.636v0.437v0.931
			c0.105,0,0.217,0,0.328,0c0.113,0,0.226,0,0.339,0c0.065-0.384,0.177-0.747,0.338-1.089c0.16-0.342,0.364-0.643,0.614-0.896
			c0.318-0.323,0.674-0.561,1.063-0.708c0.389-0.146,0.809-0.222,1.258-0.222c0.373,0,0.728,0.056,1.055,0.162
			c0.33,0.11,0.631,0.28,0.904,0.517c0.225,0.188,0.408,0.383,0.555,0.588c0.145,0.201,0.262,0.432,0.353,0.687
			c0.089,0.255,0.154,0.526,0.194,0.809c0.041,0.282,0.063,0.56,0.063,0.828c0,0.521-0.082,1.015-0.252,1.486
			c-0.17,0.473-0.419,0.873-0.744,1.213c-0.326,0.335-0.682,0.578-1.063,0.728c-0.382,0.147-0.807,0.223-1.268,0.223
			c-0.422,0-0.84-0.084-1.254-0.252c-0.414-0.172-0.766-0.42-1.045-0.752c-0.283-0.33-0.488-0.701-0.615-1.114
			C132.189,52.163,132.124,51.697,132.124,51.176z M135.273,54.096c0.32,0,0.603-0.099,0.846-0.302
			c0.242-0.202,0.447-0.487,0.611-0.858c0.125-0.297,0.215-0.619,0.268-0.966c0.055-0.348,0.081-0.719,0.081-1.114
			c0-0.744-0.132-1.371-0.394-1.894c-0.308-0.608-0.742-0.918-1.306-0.918c-0.202,0-0.364,0.022-0.494,0.063
			c-0.128,0.045-0.265,0.139-0.413,0.281c-0.105,0.1-0.213,0.223-0.314,0.372c-0.107,0.148-0.188,0.306-0.254,0.466
			c-0.112,0.282-0.194,0.618-0.245,1.006c-0.052,0.387-0.075,0.771-0.075,1.146c0,0.733,0.13,1.353,0.393,1.851
			C134.277,53.809,134.711,54.096,135.273,54.096z"/>
		<path fill="#B10A32" d="M138.918,54.587c-0.15,0-0.281-0.055-0.389-0.164c-0.107-0.106-0.162-0.235-0.162-0.389c0-0.147,0.055-0.279,0.164-0.39
			c0.109-0.108,0.238-0.164,0.387-0.164s0.279,0.055,0.391,0.162c0.111,0.106,0.17,0.237,0.17,0.392
			c0,0.153-0.054,0.282-0.162,0.389C139.21,54.532,139.076,54.587,138.918,54.587z"/>
		<path fill="#B10A32" d="M145.574,50.773v0.091c0.216,0,0.436,0.04,0.662,0.12c0.225,0.082,0.425,0.19,0.6,0.334
			c0.372,0.322,0.559,0.727,0.559,1.213c0,0.512-0.18,0.963-0.537,1.354c-0.154,0.161-0.342,0.29-0.566,0.384
			c-0.168,0.072-0.389,0.138-0.666,0.19c-0.074,0.015-0.174,0.024-0.299,0.036c-0.123,0.01-0.249,0.016-0.378,0.016l-1.486-0.029
			l-0.879,0.029c0.026-0.189,0.047-0.412,0.062-0.668c0.014-0.257,0.02-0.499,0.02-0.728c0-0.324,0.007-0.856,0.021-1.599
			c0.015-0.738,0.021-1.134,0.021-1.181c0-0.297-0.017-0.751-0.042-1.366c-0.025-0.613-0.04-1.072-0.04-1.384l1.142,0.029h1.457
			c0.58,0,1.041,0.112,1.383,0.331c0.418,0.271,0.627,0.675,0.627,1.217c0,0.447-0.166,0.82-0.504,1.113
			C146.428,50.542,146.045,50.706,145.574,50.773z M144.116,50.6h0.165c0.232,0,0.422-0.012,0.568-0.039
			c0.146-0.026,0.295-0.101,0.44-0.222c0.146-0.122,0.255-0.274,0.326-0.457c0.071-0.181,0.108-0.376,0.108-0.585
			c0-0.141-0.029-0.306-0.088-0.488c-0.059-0.188-0.134-0.315-0.229-0.391c-0.223-0.184-0.481-0.273-0.773-0.273
			c-0.078,0-0.146,0-0.197,0c-0.049,0-0.146,0.015-0.279,0.041c0,0.155-0.006,0.416-0.021,0.776
			c-0.013,0.366-0.021,0.562-0.021,0.588V50.6L144.116,50.6z M144.116,53.938h0.501c0.191,0,0.365-0.037,0.523-0.107
			c0.156-0.072,0.286-0.186,0.389-0.34c0.185-0.274,0.277-0.571,0.277-0.889c0-0.492-0.115-0.854-0.34-1.086
			c-0.226-0.233-0.561-0.349-1.007-0.349c-0.053,0-0.104,0-0.151,0c-0.08,0-0.141,0-0.181,0l-0.013,1.476L144.116,53.938
			L144.116,53.938z"/>
		<path fill="#B10A32" d="M153.87,54.514c-0.065-0.014-0.177-0.024-0.329-0.035c-0.15-0.012-0.307-0.018-0.458-0.018l-0.665,0.041l-0.064,0.012
			c0-0.218,0.016-0.758,0.045-1.615c0.013-0.348,0.021-0.67,0.021-0.974v-0.921l-0.028-1.354c-0.185,0.244-0.355,0.472-0.515,0.688
			c-0.202,0.275-0.401,0.56-0.599,0.849c-0.269,0.392-0.629,0.93-1.084,1.617c-0.655,0.989-1.032,1.561-1.133,1.709
			c-0.151-0.033-0.287-0.053-0.403-0.053c-0.081,0-0.163,0.012-0.248,0.03l-0.103,0.021v-2.134v-1.03c0-0.309-0.009-0.643-0.021-1
			c-0.018-0.356-0.026-0.656-0.034-0.9c0-0.146-0.005-0.307-0.017-0.475c-0.031-0.432-0.047-0.699-0.047-0.809l-0.028-0.557
			l0.754,0.039l0.755-0.049l-0.009,0.192c0,0.135-0.011,0.335-0.031,0.604c-0.022,0.27-0.034,0.477-0.034,0.616v1.122v2.225
			c0.223-0.289,0.49-0.649,0.803-1.082c0.148-0.209,0.299-0.416,0.455-0.627c0.342-0.483,0.684-0.976,1.021-1.469
			c0.338-0.498,0.685-1.023,1.043-1.582c0.153,0.031,0.29,0.049,0.415,0.049c0.12,0,0.26-0.018,0.413-0.049l-0.028,0.475v1.629
			c0,0.964,0.01,1.808,0.032,2.531C153.766,52.96,153.807,53.719,153.87,54.514z"/>
		<path fill="#B10A32" d="M157.674,48.346l-0.018,0.741l-0.03,2.515l0.03,1.297c0,0.248,0.004,0.565,0.013,0.949
			c0.011,0.385,0.017,0.606,0.017,0.666c-0.108,0-0.258-0.008-0.449-0.024c-0.187-0.02-0.301-0.027-0.338-0.027
			c-0.116,0-0.267,0.009-0.453,0.027c-0.186,0.018-0.299,0.024-0.336,0.024c0-0.188,0.016-0.449,0.043-0.787
			c0.029-0.338,0.045-0.553,0.045-0.647c0-0.532,0.003-1.206,0.014-2.021c0.01-0.816,0.016-1.287,0.016-1.406l-0.028-1.307
			c-0.097,0-0.255,0.008-0.478,0.021c-0.222,0.015-0.339,0.021-0.359,0.021l-0.932,0.1c0.032-0.121,0.049-0.266,0.049-0.436
			c0-0.054,0-0.107,0-0.16c-0.014-0.082-0.02-0.139-0.02-0.172L154.43,47.6l0.723,0.019c0.197,0,0.529,0.006,0.996,0.021
			c0.469,0.014,0.718,0.021,0.75,0.021h0.988c0.23,0,0.415-0.004,0.559-0.014c0.566-0.03,0.88-0.047,0.93-0.047
			c-0.018,0.113-0.029,0.188-0.034,0.226c-0.003,0.038-0.004,0.098-0.004,0.179c0,0.182,0.015,0.342,0.038,0.484
			C158.784,48.395,158.219,48.346,157.674,48.346z"/>
		<path fill="#B10A32" d="M162.868,48.346l-0.017,0.741l-0.029,2.515l0.029,1.297c0,0.248,0.002,0.565,0.014,0.949
			c0.009,0.385,0.015,0.606,0.015,0.666c-0.106,0-0.249-0.008-0.431-0.024c-0.182-0.02-0.287-0.027-0.325-0.027
			c-0.108,0-0.254,0.009-0.433,0.027c-0.178,0.018-0.283,0.024-0.321,0.024c0-0.188,0.015-0.449,0.041-0.787s0.04-0.553,0.04-0.647
			c0-0.532,0.006-1.206,0.016-2.021c0.01-0.816,0.012-1.287,0.012-1.406l-0.026-1.307c-0.091,0-0.243,0.008-0.454,0.021
			c-0.213,0.015-0.326,0.021-0.346,0.021l-0.891,0.1c0.028-0.121,0.045-0.266,0.045-0.436c0-0.054,0-0.107,0-0.16
			c-0.014-0.082-0.02-0.139-0.02-0.172l-0.025-0.121l0.688,0.019c0.191,0,0.51,0.006,0.959,0.021
			c0.447,0.014,0.686,0.021,0.716,0.021h0.948c0.219,0,0.396-0.004,0.531-0.014c0.547-0.03,0.844-0.047,0.893-0.047
			c-0.018,0.113-0.028,0.188-0.033,0.226c-0.002,0.038-0.004,0.098-0.004,0.179c0,0.182,0.014,0.342,0.037,0.484
			C163.934,48.395,163.391,48.346,162.868,48.346z"/>
		<path fill="#B10A32" d="M165.172,47.73V47.6c0.174,0,0.439,0.01,0.796,0.029c0.357,0.02,0.625,0.031,0.808,0.031c0.324,0,0.757-0.012,1.301-0.031
			c0.545-0.02,0.869-0.029,0.976-0.029c-0.024,0.129-0.038,0.273-0.038,0.435c0,0.041,0.002,0.087,0.004,0.137
			c0.004,0.052,0.01,0.108,0.017,0.177l0.019,0.122c-0.255,0-0.638-0.02-1.15-0.057c-0.512-0.037-0.896-0.056-1.15-0.056
			l-0.041,1.052v1.12l2.305-0.077c-0.014,0.106-0.024,0.196-0.035,0.276c-0.01,0.076-0.016,0.143-0.016,0.193
			c0,0.09,0.006,0.16,0.016,0.215c0.011,0.055,0.021,0.11,0.035,0.172c-0.195,0-0.492-0.015-0.891-0.047
			c-0.396-0.027-0.7-0.045-0.909-0.045h-0.495l-0.01,1.283v1.273c0.719,0,1.499-0.043,2.344-0.131
			c-0.025,0.127-0.039,0.272-0.039,0.435c0,0.041,0.002,0.087,0.004,0.137c0.004,0.052,0.01,0.108,0.017,0.177l0.019,0.123
			c-0.201,0-0.504-0.012-0.906-0.031c-0.404-0.021-0.711-0.03-0.922-0.03l-1.19,0.03l-0.897,0.031l0.039-0.574l0.051-1.895v-1.537
			v-1.18c0-0.258-0.004-0.452-0.01-0.586C165.186,48.074,165.172,47.736,165.172,47.73z"/>
	</g>
</g>
</svg>
